<svg xmlns="http://www.w3.org/2000/svg" width="21.19" height="45.201" viewBox="0 0 21.19 45.201">
  <path id="Icon_awesome-female" data-name="Icon awesome-female" d="M11.157,0a5.65,5.65,0,1,1-5.65,5.65A5.65,5.65,0,0,1,11.157,0M21.687,31.268,17.45,14.318a2.119,2.119,0,0,0-2.056-1.6h-1a7.759,7.759,0,0,1-6.469,0h-1a2.119,2.119,0,0,0-2.056,1.6L.626,31.268A2.12,2.12,0,0,0,2.681,33.9H7.625v9.181A2.119,2.119,0,0,0,9.744,45.2h2.825a2.119,2.119,0,0,0,2.119-2.119V33.9h4.944A2.12,2.12,0,0,0,21.687,31.268Z" transform="translate(-0.562)" fill="#c3a355"/>
</svg>
