<svg id="Icon_feather-menu" data-name="Icon feather-menu" xmlns="http://www.w3.org/2000/svg" width="15" height="10.5" viewBox="0 0 15 10.5">
  <path id="Path_2985" data-name="Path 2985" d="M17.25,18H3.75a.75.75,0,0,1,0-1.5h13.5a.75.75,0,1,1,0,1.5Z" transform="translate(-3 -12)" fill="#fff"/>
  <path id="Path_2986" data-name="Path 2986" d="M17.25,9H3.75a.75.75,0,0,1,0-1.5h13.5a.75.75,0,1,1,0,1.5Z" transform="translate(-3 -7.5)" fill="#fff"/>
  <path id="Path_2987" data-name="Path 2987" d="M17.25,27H3.75a.75.75,0,1,1,0-1.5h13.5a.75.75,0,1,1,0,1.5Z" transform="translate(-3 -16.5)" fill="#fff"/>
</svg>
