<svg xmlns="http://www.w3.org/2000/svg" width="9.57" height="9.57" viewBox="0 0 9.57 9.57">
  <g id="Icon_feather-log-out" data-name="Icon feather-log-out" transform="translate(-3 -3)">
    <path id="Path_2822" data-name="Path 2822" d="M6.35,12.57H4.436A1.437,1.437,0,0,1,3,11.135v-6.7A1.437,1.437,0,0,1,4.436,3H6.35a.479.479,0,0,1,0,.957H4.436a.479.479,0,0,0-.479.479v6.7a.479.479,0,0,0,.479.479H6.35a.479.479,0,1,1,0,.957Z" transform="translate(0 0)" fill="#d03b3b"/>
    <path id="Path_2823" data-name="Path 2823" d="M22.979,14.742a.479.479,0,0,1-.338-.817l2.054-2.054L22.64,9.817a.479.479,0,1,1,.677-.677l2.393,2.393a.479.479,0,0,1,0,.677L23.317,14.6A.477.477,0,0,1,22.979,14.742Z" transform="translate(-13.279 -4.086)" fill="#d03b3b"/>
    <path id="Path_2824" data-name="Path 2824" d="M18.221,17.457H12.479a.479.479,0,1,1,0-.957h5.742a.479.479,0,0,1,0,.957Z" transform="translate(-6.129 -9.193)" fill="#d03b3b"/>
  </g>
</svg>
