<svg xmlns="http://www.w3.org/2000/svg" width="16.951" height="45.202" viewBox="0 0 16.951 45.202">
  <path id="Icon_awesome-male" data-name="Icon awesome-male" d="M8.475,0a5.65,5.65,0,1,1-5.65,5.65A5.65,5.65,0,0,1,8.475,0m4.238,12.713h-1a7.759,7.759,0,0,1-6.47,0h-1A4.238,4.238,0,0,0,0,16.951V28.957a2.119,2.119,0,0,0,2.119,2.119H3.531V43.083A2.119,2.119,0,0,0,5.65,45.2H11.3a2.119,2.119,0,0,0,2.119-2.119V31.076h1.413a2.119,2.119,0,0,0,2.119-2.119V16.951A4.238,4.238,0,0,0,12.713,12.713Z" fill="#39836b"/>
</svg>
