<svg xmlns="http://www.w3.org/2000/svg" width="16" height="15.996" viewBox="0 0 16 15.996">
  <g id="Icon_feather-pie-chart" data-name="Icon feather-pie-chart" transform="translate(-1.498 -1.5)">
    <path id="Path_3056" data-name="Path 3056" d="M9.5,18.137A8,8,0,0,1,6.3,2.806a.727.727,0,1,1,.582,1.333,6.545,6.545,0,1,0,8.646,8.548.727.727,0,1,1,1.34.566A8,8,0,0,1,9.5,18.137Z" transform="translate(0 -0.641)" fill="#fff"/>
    <path id="Path_3057" data-name="Path 3057" d="M24.5,10.227H17.227A.727.727,0,0,1,16.5,9.5V2.227a.727.727,0,0,1,.727-.727,7.994,7.994,0,0,1,8,8A.727.727,0,0,1,24.5,10.227ZM17.954,8.772h5.778a6.549,6.549,0,0,0-5.778-5.778Z" transform="translate(-7.728 0)" fill="#fff"/>
  </g>
</svg>
